<svg width="1079" height="266" viewBox="0 0 1079 266" fill="none" xmlns="http://www.w3.org/2000/svg">
<path d="M560.6 151.6C560.467 157.6 560.6 162.6 561 166.6C561.4 170.467 561.867 173.667 562.4 176.2C562.933 179.133 563.6 181.467 564.4 183.2L540.8 183C536.667 182.467 533.133 180.733 530.2 177.8C527.267 174.867 525.6 171.267 525.2 167V112.4C524.933 109.867 524.4 108.067 523.6 107C522.933 105.933 522.133 105.333 521.2 105.2C520.4 104.933 519.6 105 518.8 105.4C518 105.667 517.4 105.933 517 106.2C515.667 107.267 514.267 108.467 512.8 109.8C511.333 111.133 509.867 112.467 508.4 113.8C507.067 115.133 505.8 116.4 504.6 117.6C503.4 118.667 502.467 119.533 501.8 120.2V179.2C502.067 180.133 502.467 181 503 181.8C503.667 182.6 504.533 183 505.6 183H466.4V111.6C466.133 108.933 465.533 107.2 464.6 106.4C463.8 105.467 462.867 105 461.8 105C460.6 105 459.333 105.467 458 106.4C456.667 107.6 455.2 108.933 453.6 110.4C452.133 111.733 450.667 113.067 449.2 114.4C447.733 115.733 446.4 117 445.2 118.2C444.133 119.267 443.333 120.067 442.8 120.6V179.2C443.067 180.133 443.467 181 444 181.8C444.533 182.6 445.333 183 446.4 183H407.4V92.2C407.4 90.4667 407 89.2667 406.2 88.6C405.4 87.8 404.867 87.3333 404.6 87.2H404.4C403.867 86.6667 403.6 86.1333 403.6 85.6C403.6 84.2667 404.2 83.6 405.4 83.6H425C429.933 83.6 434.133 85.3333 437.6 88.8C441.067 92.2667 442.8 96.4667 442.8 101.4V112C447.067 106.4 450.733 101.6 453.8 97.6C457 93.4667 459.933 90.3333 462.6 88.2C464.333 86.7333 466.133 85.7333 468 85.2C469.867 84.5333 471.533 84.0667 473 83.8C474.733 83.5333 476.467 83.4667 478.2 83.6C481.8 83.6 484.867 84.0667 487.4 85C489.933 85.9333 492.067 87.1333 493.8 88.6C495.533 90.0667 496.867 91.6667 497.8 93.4C498.867 95 499.733 96.6 500.4 98.2C500.533 98.7333 500.667 99.5333 500.8 100.6C501.067 101.533 501.267 102.533 501.4 103.6C501.533 104.533 501.6 105.4 501.6 106.2C501.733 107 501.8 107.467 501.8 107.6V110.8V108.8V111.4C506.067 105.933 509.667 101.2 512.6 97.2C515.667 93.2 518.533 90.2 521.2 88.2C523.067 86.7333 524.933 85.7333 526.8 85.2C528.667 84.5333 530.333 84.0667 531.8 83.8C533.533 83.5333 535.267 83.4667 537 83.6C540.467 83.6 543.467 84.0667 546 85C548.533 85.9333 550.667 87.1333 552.4 88.6C554.133 90.0667 555.533 91.6667 556.6 93.4C557.667 95 558.467 96.6 559 98.2C559.533 99.2667 559.867 100.4 560 101.6C560.267 102.667 560.467 103.8 560.6 105V151.6ZM653.322 136C658.255 136 662.455 137.733 665.922 141.2C669.389 144.533 671.122 148.667 671.122 153.6C671.122 155.2 670.722 157.667 669.922 161C669.255 164.333 667.389 167.667 664.322 171C661.255 174.2 656.522 177.067 650.122 179.6C643.855 182.133 635.055 183.4 623.722 183.4C614.789 183.4 607.455 182.6 601.722 181C595.989 179.267 591.389 177.2 587.922 174.8C584.455 172.4 581.922 169.933 580.322 167.4C578.722 164.733 577.655 162.4 577.122 160.4L576.522 157.2C576.522 157.067 576.522 156.267 576.522 154.8C576.522 153.2 576.522 151.2 576.522 148.8C576.522 146.4 576.522 143.733 576.522 140.8C576.522 137.733 576.522 134.6 576.522 131.4V106.4C576.789 101.333 578.655 96.7333 582.122 92.6C583.589 90.8667 585.455 89.2 587.722 87.6C589.989 85.8667 592.722 84.3333 595.922 83C599.255 81.6667 603.189 80.6 607.722 79.8C612.389 79 617.722 78.6 623.722 78.6C633.722 78.6 641.722 79.6667 647.722 81.8C653.855 83.8 658.589 86.2667 661.922 89.2C665.255 92 667.455 94.8667 668.522 97.8C669.722 100.6 670.455 102.8 670.722 104.4C671.122 106.4 671.255 108.267 671.122 110C670.989 110.933 670.789 111.867 670.522 112.8C670.255 113.733 669.989 114.6 669.722 115.4L669.522 115.6C669.122 116.533 668.589 117.467 667.922 118.4C667.255 119.467 666.122 120.667 664.522 122C662.922 123.2 660.789 124.333 658.122 125.4C655.855 126.467 652.855 127.667 649.122 129C645.522 130.333 641.522 131.733 637.122 133.2C632.855 134.667 628.522 136.133 624.122 137.6C619.722 139.067 615.655 140.4 611.922 141.6V155.6V164.2C612.055 165.667 612.589 167 613.522 168.2C614.189 169.267 615.322 170.2 616.922 171C618.522 171.8 620.789 172.2 623.722 172.2C626.655 172.2 628.922 171.8 630.522 171C632.255 170.2 633.455 169.267 634.122 168.2C634.922 167 635.389 165.667 635.522 164.2L635.722 153.6C635.722 148.667 637.455 144.533 640.922 141.2C644.389 137.733 648.522 136 653.322 136ZM611.922 106.4V134.4C617.789 131.867 622.255 129.6 625.322 127.6C628.522 125.467 630.855 123.667 632.322 122.2C634.055 120.6 635.122 119.133 635.522 117.8V97.8C635.389 96.3333 634.922 95 634.122 93.8C633.455 92.7333 632.255 91.8 630.522 91C628.922 90.2 626.655 89.8 623.722 89.8C620.789 89.8 618.522 90.2 616.922 91C615.322 91.8 614.189 92.7333 613.522 93.8C612.589 95 612.055 96.3333 611.922 97.8V106.4ZM781.083 151.8C781.083 157.8 781.216 162.8 781.483 166.8C781.883 170.667 782.349 173.867 782.883 176.4C783.416 179.333 784.083 181.667 784.883 183.4H773.083C770.149 183.4 767.416 183.333 764.883 183.2C762.483 183.2 761.349 183.2 761.483 183.2C757.216 182.667 753.616 180.933 750.683 178C747.749 175.067 746.083 171.467 745.683 167.2V113.2C745.416 110.667 744.949 108.867 744.283 107.8C743.616 106.6 742.816 105.933 741.883 105.8C740.949 105.533 740.083 105.6 739.283 106C738.483 106.267 737.883 106.533 737.483 106.8C736.149 108 734.683 109.333 733.083 110.8C731.616 112.133 730.149 113.533 728.683 115C727.216 116.333 725.883 117.6 724.683 118.8C723.483 119.867 722.616 120.667 722.083 121.2V179.4C722.349 180.333 722.749 181.2 723.283 182C723.816 182.8 724.616 183.2 725.683 183.2H686.683V92.8C686.683 91.0667 686.283 89.8667 685.483 89.2C684.683 88.4 684.149 87.9333 683.883 87.8H683.683C683.149 87.5333 682.883 87 682.883 86.2C682.883 84.8667 683.483 84.2 684.683 84.2H704.283C709.216 84.2 713.416 85.9333 716.883 89.4C720.349 92.8667 722.083 97.0667 722.083 102V112.6C726.349 107 730.016 102.2 733.083 98.2C736.283 94.0667 739.216 90.9333 741.883 88.8C743.616 87.3333 745.416 86.3333 747.283 85.8C749.149 85.1333 750.816 84.6667 752.283 84.4C754.016 84.1333 755.749 84.0667 757.483 84.2C761.083 84.2 764.149 84.6667 766.683 85.6C769.216 86.5333 771.349 87.7333 773.083 89.2C774.816 90.6667 776.149 92.2667 777.083 94C778.149 95.7333 779.016 97.4 779.683 99C780.083 100.067 780.416 101.133 780.683 102.2C780.949 103.267 781.083 104.467 781.083 105.8V151.8ZM889.044 152.8C888.91 158.8 889.044 163.733 889.444 167.6C889.977 171.467 890.51 174.533 891.044 176.8C891.577 179.467 892.244 181.6 893.044 183.2L869.444 183C865.177 182.467 861.577 180.733 858.644 177.8C855.844 174.867 854.244 171.267 853.844 167C853.71 167.133 853.644 166.067 853.644 163.8C853.644 161.533 853.644 158.467 853.644 154.6C849.377 160.2 845.644 165.067 842.444 169.2C839.377 173.333 836.51 176.467 833.844 178.6C830.777 181 827.31 182.467 823.444 183C819.71 183.667 816.044 183.533 812.444 182.6C808.844 181.667 805.577 180 802.644 177.6C799.71 175.067 797.51 172 796.044 168.4C795.11 166.133 794.644 163.867 794.644 161.6V119.2C794.644 114.533 795.644 110.067 797.644 105.8C799.777 101.533 802.777 98 806.644 95.2C810.11 92.5333 814.71 90.2 820.444 88.2C826.177 86.0667 833.244 85 841.644 85C845.91 85 849.844 85.2 853.444 85.6V57.2H888.844H890.644H890.844C892.044 57.2 892.644 57.8667 892.644 59.2C892.644 60 892.31 60.5333 891.644 60.8C891.377 60.9333 890.844 61.3333 890.044 62C889.377 62.6667 888.977 63.7333 888.844 65.2L889.044 152.8ZM853.444 103.4C853.31 102.867 853.044 102.2 852.644 101.4C852.377 100.6 851.777 99.8 850.844 99C850.044 98.2 848.91 97.5333 847.444 97C845.977 96.4667 844.11 96.2 841.844 96.2C838.777 96.2 836.444 96.6667 834.844 97.6C833.244 98.4 832.11 99.3333 831.444 100.4C830.644 101.6 830.177 102.933 830.044 104.4V151.4C830.044 155 830.444 157.533 831.244 159C832.044 160.333 832.91 161.133 833.844 161.4C834.91 161.667 835.844 161.6 836.644 161.2C837.577 160.8 838.177 160.467 838.444 160.2C839.777 159.133 841.177 157.933 842.644 156.6C844.11 155.267 845.51 153.933 846.844 152.6C848.31 151.267 849.577 150.067 850.644 149C851.844 147.933 852.777 147.067 853.444 146.4V103.4ZM998.205 155.4C998.205 155.933 997.871 157.667 997.205 160.6C996.671 163.533 994.871 166.667 991.805 170C988.871 173.333 984.205 176.333 977.805 179C971.405 181.667 962.471 183 951.005 183C940.071 183 931.471 181.8 925.205 179.4C918.938 177 914.205 174.267 911.005 171.2C907.938 168 905.938 164.933 905.005 162C904.205 158.933 903.805 156.867 903.805 155.8C903.805 155.533 903.738 155.067 903.605 154.4C903.605 153.6 903.605 151.6 903.605 148.4C903.605 145.2 903.605 140.333 903.605 133.8C903.605 127.133 903.605 117.867 903.605 106C903.738 100.933 905.538 96.3333 909.005 92.2C910.471 90.4667 912.338 88.8 914.605 87.2C916.871 85.4667 919.671 83.9333 923.005 82.6C926.338 81.2667 930.271 80.2 934.805 79.4C939.338 78.6 944.605 78.2 950.605 78.2C961.538 78.2 970.138 79.4 976.405 81.8C982.671 84.2 987.338 87 990.405 90.2C993.605 93.2667 995.605 96.2667 996.405 99.2C997.338 102.133 997.871 104.133 998.005 105.2L998.205 155.4ZM950.805 171.8C953.738 171.8 956.005 171.4 957.605 170.6C959.338 169.8 960.538 168.867 961.205 167.8C962.005 166.6 962.471 165.2 962.605 163.6V97.4C962.471 95.9333 962.005 94.6 961.205 93.4C960.538 92.3333 959.338 91.4 957.605 90.6C956.005 89.8 953.738 89.4 950.805 89.4C947.738 89.4 945.405 89.8 943.805 90.6C942.205 91.4 941.071 92.3333 940.405 93.4C939.605 94.6 939.138 95.9333 939.005 97.4L939.205 163.8C939.338 165.267 939.805 166.6 940.605 167.8C941.271 168.867 942.405 169.8 944.005 170.6C945.605 171.4 947.871 171.8 950.805 171.8Z" fill="#122A4D"/>
<circle cx="106.334" cy="160.401" r="30.3336" fill="#122A4D"/>
<rect x="143.988" y="37.6668" width="162.284" height="54.2717" rx="27.1359" transform="rotate(50.7889 143.988 37.6668)" fill="#122A4D"/>
<rect x="243.406" y="33" width="162.284" height="60.6671" rx="30.3336" transform="rotate(50.7889 243.406 33)" fill="#122A4D"/>
</svg>
